<svg xmlns="http://www.w3.org/2000/svg" viewBox="0 0 750 350"><path d="M-144.5-23.5h897v385h-897z" fill="teal"/><path d="M143 270L94.9 166.1H59.3V270H34V24h62.1c10.2 0 19.5 1.2 28 3.6 8.5 2.4 15.9 6.3 22.1 11.8 6.2 5.5 11 12.6 14.5 21.4 3.5 8.8 5.2 19.5 5.2 32.3 0 19.3-4.1 34.6-12.2 46.1s-19 19.4-32.6 23.6L172 270h-29zM59.3 140.6h33.2c15.6 0 27.6-3.9 35.8-11.8S140.6 109 140.6 93c0-16.2-4.1-27.6-12.3-34.1-8.2-6.5-20.2-9.8-35.8-9.8H59.3v91.5zM313.6 195h-72.5l-19.2 75H196l67.3-246h28.6l67.3 246h-26.8l-18.8-75zm-6.4-25.1l-9.4-37.5c-3.5-13.7-6.8-27.4-10.1-41.1-3.3-13.6-6.5-27.6-9.7-41.8h-1.2c-3.3 14.3-6.5 28.2-9.7 41.8-3.3 13.6-6.6 27.3-10.1 41.1l-9.4 37.5h59.6zm90.7 73.5h49.6V50.2h-49.6V24h124.9v26.3h-49.6v193.1h49.6V270H397.9v-26.6zM577.6 24h48.7c30.3 0 53.2 10.5 69 31.5 15.7 21 23.6 51.1 23.6 90.4 0 19.5-2 36.9-5.9 52.3-4 15.4-9.8 28.4-17.5 39-7.7 10.6-17.3 18.8-28.6 24.4-11.4 5.6-24.5 8.4-39.3 8.4h-49.9V24zm47.2 220.5c22.7 0 39.7-8.6 51-25.9s16.9-41.5 16.9-72.7c0-31.2-5.6-55.1-16.9-71.6s-28.3-24.8-51-24.8h-21.9v195h21.9z" fill="#fff"/><path d="M75.7 330h-5.4v-32.9H70L56.7 330h-5.5l-13.6-32.9h-.3V330h-5.5v-38.9H41l13.2 32.4.2.1 12.5-32.5h8.9V330zm45.7 0H115l-4.7-11.8H92.7L88.1 330H82l16.4-38.9h7.1l15.9 38.9zm-12.6-15.8l-7-17.6h-.6l-7 17.6h14.6zm54.1 15.8h-7.4l-22.4-32.7V330h-5.4v-38.9h7.4l22.4 32.2v-32.2h5.4V330zm45.7 0h-6.4l-4.7-11.8h-17.6l-4.6 11.8h-6.1l16.4-38.9h7.1l15.9 38.9zM196 314.2l-7-17.6h-.6l-7 17.6H196zm50.7 14.6c-5.5 1.2-10.5 1.8-15.2 1.8-1.7 0-3.4-.1-4.9-.2-1.5-.1-3.2-.4-5-.9-1.8-.5-3.3-1.1-4.6-1.8-1.3-.7-2.4-1.8-3.2-3.1-.8-1.3-1.3-2.8-1.3-4.6v-18.4c0-2.3.6-4.2 1.9-5.8 1.2-1.6 2.9-2.7 5-3.5 2.1-.7 4.1-1.2 6-1.5 1.9-.3 3.9-.4 6-.4 5.1 0 9.8.3 14.2 1v4.5c-1.6-.4-3.9-.7-6.9-1-3-.3-5.4-.4-7.2-.4-8.7 0-13 2.4-13 7.1V320c0 1.3.4 2.5 1.2 3.4.8.9 1.9 1.6 3.4 2.1 1.4.5 2.8.8 4.2 1 1.4.2 2.9.3 4.5.3 2.8 0 5.9-.4 9.1-1.1v-13.6h-9.6V308h15.3v20.8zm37.7 1.2h-28.3v-38.9h27.6v4.1h-21.5v12.7h19.4v4.1h-19.4v14h22.1v4zm52.4 0h-5.4v-32.9h-.3L317.9 330h-5.5l-13.6-32.9h-.3V330H293v-38.9h9.2l13.2 32.4.2.1 12.5-32.5h8.9V330zm39 0h-28.3v-38.9h27.6v4.1h-21.5v12.7H373v4.1h-19.4v14h22.1v4zm43.7 0h-7.4l-22.4-32.7V330h-5.4v-38.9h7.4l22.4 32.2v-32.2h5.4V330zm40.9-34.9h-13.9V330h-6.2v-34.9h-14V291h34.1v4.1zm63.3 21.7v2.8c0 4.2-1.2 7-3.7 8.6-2.5 1.6-6.4 2.4-11.7 2.4-3.4 0-7.6-.3-12.6-1v-4.9c5 1 9.3 1.5 12.9 1.5 2.9 0 5.1-.3 6.7-.9 1.5-.6 2.3-1.9 2.3-3.8v-5c0-1.6-.5-2.8-1.5-3.5-1-.7-2.8-1-5.4-1H506c-4.1 0-7-.8-8.7-2.4-1.6-1.6-2.4-3.9-2.4-7v-3.1c0-3.1 1.2-5.4 3.5-6.8 2.3-1.5 6.5-2.2 12.7-2.2 3 0 6.5.2 10.6.7v4.4c-4.7-.7-8.4-1-11-1-3.9 0-6.5.4-7.8 1.1-1.3.7-1.9 2-1.9 3.8v4.4c0 1.4.5 2.3 1.5 3 1 .6 2.8.9 5.4.9h4.9c4.3 0 7.2.7 8.7 2.2 1.4 1.3 2.2 3.6 2.2 6.8zm40-25.7l-15 23V330h-6.2v-15.7l-14.9-23.2h7l11 18.3 11-18.3h7.1zm33.1 25.7v2.8c0 4.2-1.2 7-3.7 8.6-2.5 1.6-6.4 2.4-11.7 2.4-3.4 0-7.6-.3-12.6-1v-4.9c5 1 9.3 1.5 12.9 1.5 2.9 0 5.1-.3 6.7-.9 1.5-.6 2.3-1.9 2.3-3.8v-5c0-1.6-.5-2.8-1.5-3.5-1-.7-2.8-1-5.4-1H579c-4.1 0-7-.8-8.7-2.4-1.6-1.6-2.4-3.9-2.4-7v-3.1c0-3.1 1.2-5.4 3.5-6.8 2.3-1.5 6.5-2.2 12.7-2.2 3 0 6.5.2 10.6.7v4.4c-4.7-.7-8.4-1-11-1-3.9 0-6.5.4-7.8 1.1-1.3.7-1.9 2-1.9 3.8v4.4c0 1.4.5 2.3 1.5 3 1 .6 2.8.9 5.4.9h4.9c4.3 0 7.2.7 8.7 2.2 1.5 1.3 2.3 3.6 2.3 6.8zm35.9-21.7h-13.9V330h-6.2v-34.9h-14V291h34.1v4.1zm35.1 34.9h-28.3v-38.9h27.6v4.1h-21.5v12.7H665v4.1h-19.4v14h22.1v4zm52.4 0h-5.4v-32.9h-.3L701.3 330h-5.5l-13.6-32.9h-.3V330h-5.5v-38.9h9.2l13.2 32.4.2.1 12.5-32.5h8.9V330z" fill="#fff"/></svg>