<svg width="750" height="350" viewBox="0 0 750 350" xmlns="http://www.w3.org/2000/svg"><style>g path{fill:#fff}</style><path fill="teal" d="M0 0h750v350H0V0z"/><g><path d="M73 305h-5l-4.8-7.1h-2v7.1h-4.4v-18.2H65c2.4 0 4.1.3 5.2.9 1.1.6 1.7 1.6 1.7 3v3.2c0 1.1-.4 2-1.2 2.5-.8.6-1.8 1-3 1.1L73 305zm-5.4-12v-1.3c0-.7-.2-1.1-.6-1.4-.4-.3-1.1-.4-2.1-.4h-3.8v5h3.8c1 0 1.7-.1 2.1-.4.4-.2.6-.7.6-1.5zm37.4 12h-4.4l-1.6-4.8h-6.6l-1.6 4.8h-4.3l6.7-18.2h5.3L105 305zm-7-7.7l-2.3-6.8h-.1l-2.3 6.8H98zm26.3 7.7h-4.4v-18.2h4.4V305zm33.2-12.7v7.4c0 2.1-.6 3.4-1.9 4.2-1.3.7-3.5 1.1-6.7 1.1h-7.8v-18.2h7.7c3.1 0 5.3.4 6.6 1.1 1.4.8 2.1 2.3 2.1 4.4zm-4.4 7.4v-7.5c0-.9-.4-1.5-1.1-1.8-.7-.3-1.8-.5-3.2-.5h-3.3v12h3.2c1.7 0 2.8-.1 3.5-.4.6-.2.9-.8.9-1.8zm54.6 5.3h-3.9v-13.4h-.1l-4.6 13.4h-3.5l-4.7-13.4h-.1V305h-4v-18.2h6.2l4.5 13 4.4-13h5.9V305zm33.5 0h-4.4l-1.6-4.8h-6.6L227 305h-4.3l6.7-18.2h5.3l6.5 18.2zm-7-7.7l-2.3-6.8h-.1l-2.3 6.8h4.7zm39 7.7h-4.4l-8.8-12.6V305h-3.9v-18.2h4.4l8.8 12.4v-12.4h3.9V305zm33.5 0h-4.4l-1.6-4.8H294l-1.6 4.8h-4.3l6.7-18.2h5.3l6.6 18.2zm-7-7.7l-2.3-6.8h-.1l-2.3 6.8h4.7zm38.1 6.8c-.9.3-2.1.6-3.6.8-1.4.2-2.8.3-4 .3-1 0-1.9 0-2.7-.1s-1.6-.2-2.4-.5c-.8-.2-1.5-.5-2-.9-.6-.4-1-.9-1.3-1.5-.3-.6-.5-1.4-.5-2.2v-7.6c0-1 .2-1.8.6-2.5.4-.7.9-1.3 1.5-1.7.6-.4 1.3-.8 2.2-1 .8-.3 1.6-.4 2.4-.5s1.6-.1 2.5-.1c2.6 0 5 .2 7.4.6v3.3c-2.2-.5-4.7-.8-7.4-.8-3.2 0-4.7.9-4.7 2.7v7.3c0 .9.4 1.6 1.3 1.9.9.4 2.2.5 3.8.5.9 0 1.9-.1 2.9-.4v-4.2h-3v-2.9h7.1v9.5zm30.6.9h-14.1v-18.2h13.9v3.1h-9.5v4.2h8.6v3.1h-8.6v4.7h9.8v3.1zm36.7 0h-3.9v-13.4h-.1l-4.6 13.4H393l-4.7-13.4h-.1V305h-4v-18.2h6.2l4.5 13 4.4-13h5.9V305zm31 0H422v-18.2h13.9v3.1h-9.5v4.2h8.6v3.1h-8.6v4.7h9.8v3.1zm32.9 0h-4.4l-8.8-12.6V305h-3.9v-18.2h4.4l8.8 12.4v-12.4h3.9V305zm30.9-15.1h-5.6V305H490v-15.1h-5.6v-3.1h15.5v3.1zm42.3 8.7v1.2c0 1.1-.2 2-.6 2.7-.4.7-1 1.3-1.7 1.7s-1.6.7-2.5.8-2 .2-3.2.2c-1.7 0-3.9-.2-6.4-.5v-3.3c3.1.5 5.3.7 6.5.7 2.4 0 3.6-.6 3.6-1.9V299c0-.5-.2-1-.5-1.3-.3-.3-1-.5-1.9-.5h-2.1c-4 0-6-1.6-6-4.8v-1.3c0-1.6.7-2.7 2-3.5 1.3-.8 3.4-1.1 6.3-1.1 1.4 0 3.3.1 5.7.4v3.2c-2.8-.3-4.8-.5-5.8-.5-1.4 0-2.4.1-3 .4-.5.2-.8.7-.8 1.2v1.3c0 1 .8 1.4 2.4 1.4h2.2c2.1 0 3.6.4 4.6 1.2.7.8 1.2 2 1.2 3.5zm31.7-11.8l-6.6 10.8v7.3h-4.4v-7.3l-6.6-10.9h5l3.8 7.1 3.8-7.1h5zm29 11.8v1.2c0 1.1-.2 2-.6 2.7-.4.7-1 1.3-1.7 1.7s-1.6.7-2.5.8c-.9.2-2 .2-3.2.2-1.7 0-3.9-.2-6.4-.5v-3.3c3.1.5 5.3.7 6.5.7 2.4 0 3.6-.6 3.6-1.9V299c0-.5-.2-1-.5-1.3-.3-.3-1-.5-1.9-.5h-2.1c-4 0-6-1.6-6-4.8v-1.3c0-1.6.7-2.7 2-3.5 1.3-.8 3.4-1.1 6.3-1.1 1.4 0 3.3.1 5.7.4v3.2c-2.8-.3-4.8-.5-5.8-.5-1.4 0-2.4.1-3 .4-.5.2-.8.7-.8 1.2v1.3c0 1 .8 1.4 2.4 1.4h2.2c2.1 0 3.6.4 4.5 1.2.9.8 1.3 2 1.3 3.5zm30.1-8.7h-5.6V305H623v-15.1h-5.6v-3.1H633v3.1zm29.5 15.1h-14.1v-18.2h13.9v3.1h-9.5v4.2h8.6v3.1h-8.6v4.7h9.8v3.1zm36.8 0h-3.9v-13.4h-.1l-4.6 13.4h-3.5l-4.7-13.4h-.1V305h-4v-18.2h6.2l4.5 13 4.4-13h5.9V305z"/></g><path fill="#fff" d="M676.7 88.4c2 .2 4 .3 6.1.5 3.1.2 6.4.5 9.8.8V51c-3.4-.3-6.6-.5-9.8-.7-33.1-2.5-56-3.7-68.8-3.7-30.7 0-54.4 3.5-71.2 10.4-12.3 5.1-20 13.2-23.3 24.3-2.1-8.7-5.5-15.6-10.3-20.9-8.4-9.2-25.3-13.8-50.6-13.8-19.2 0-33.3 2.4-42.2 7.2-8.9 4.8-15 12.3-18.2 22.5-3.2-9.9-9.4-17.3-18.6-22.2-9.2-4.9-23-7.4-41.4-7.4-34.4 0-53.5 9.5-57.2 28.4V50.6h-.1V47h-58.3v4c-1.5-.4-2.9-.9-4.4-1.2-5.5-1.3-12.6-2-21.4-2-16 0-30.9 3.9-44.8 11.8-13.9 7.9-25.7 19.9-35.6 36.2h-1.2l-4.8-43.2-.6-5.6H62.4v204h58.8V147.8c8.5-17.9 18.7-30.4 30.6-37.6 11.9-7.2 23.9-10.8 36.2-10.8 7.5 0 13.7.5 18.6 1.4 4.8.9 10.1 2.3 16 4V250H281V112c0-12.1 1.8-19.8 5.4-23.3 3.6-3.4 13.4-5.2 29.4-5.2 12.5 0 20.2 1.7 23 5.2 2.8 3.4 4.2 11.2 4.2 23.3v138h58.4V112c0-12.1 1.8-19.8 5.4-23.3 3.6-3.4 13.4-5.2 29.4-5.2 12.5 0 20.2 1.7 23 5.2 2.8 3.4 4.2 11.2 4.2 23.3v138h58.4c3.6.5 7.1.9 10.6 1.4 25.3 3.2 47.1 4.8 65.6 4.8 10.9 0 20.5-.4 28.6-1 8.1-.7 16.6-2.2 25.4-4.4s15.9-5.3 21.4-9.4c5.5-4 10-9.6 13.6-16.8 3.6-7.2 5.4-15.8 5.4-25.8v-25.4c0-32.2-23.7-48.3-71.2-48.3h-25.6c-6.9 0-12.1-1.4-15.4-4.2-3.3-2.8-5-5.8-5-9.2V101c0-6.7 2.1-11.2 6.4-13.5 4.3-2.4 14.5-3.5 30.8-3.5 4.9 0 25.2 1.4 60.8 4.2 1.2.1 2.3.1 3.5.2zM582 169.2h25.2c11.5 0 18.9 1.6 22.4 4.8 3.5 3.2 5.2 8 5.2 14.4v12.5c0 6.9-3.1 11.6-9.4 13.9-6.3 2.4-15.1 3.5-26.6 3.5-14.4 0-40-2.9-77-8.7v-68.8c2.8 6.3 7.1 11.5 12.8 15.8 11.3 8.4 27.1 12.6 47.4 12.6z"/></svg>