<svg xmlns="http://www.w3.org/2000/svg" viewBox="0 0 171.5 139.4"><path fill="#2aa9e0" d="M171.5 16.5c-6.3 2.8-13 4.7-20.2 5.5 7.3-4.3 12.8-11.2 15.5-19.4-6.8 4-14.4 7-22.4 8.5C138 4.5 129 0 118.7 0c-19.4 0-35 15.8-35 35.2 0 2.7.2 5.4.8 8C55.2 41.7 29.3 27.7 12 6.4 9 11.6 7 17.7 7 24c0 12.3 6.2 23 15.6 29.4-5.7-.2-11.2-1.7-16-4.4v.5C7 66.5 19 80.7 35.2 84c-2.8.8-6 1.2-9.2 1.2-2.2 0-4.4-.2-6.6-.6 4.5 14 17.5 24 33 24.4-12.2 9.4-27.3 15-43.8 15-3 0-5.7 0-8.4-.4 15.6 10 34 15.8 54 15.8 64.7 0 100-53.6 100-100v-4.7c6.8-5 12.8-11 17.5-18.2z"/></svg>