<svg xmlns="http://www.w3.org/2000/svg" viewBox="0 0 400 400"><path fill="#FFF" d="M143 24.2C97.5 39.7 59 73.6 37.4 116.5c-7.5 14.8-13 30.5-16.2 46.8-8.2 40.4-2.5 83.5 16 120.3 12.2 24 29.6 45.4 50.6 62 19.8 16 43 27.7 67.5 34.2 31 8.3 64 8 95.2 1 28.2-6.5 55-20 76.2-39.6 22.4-20.7 38.5-48 47-77.2 9.3-32 10.5-66 4.7-98.8h-175v72.6H305c-3.8 23.2-17.6 44.4-37 57.5-12.4 8.3-26.5 13.6-41 16.2-14.7 2.5-30 2.8-44.5 0-15-3-29-9.3-41.4-18-19-14-34-34.2-42-57-8-23.4-8-49.3 0-72.5 6-16.4 15-31.5 27-44 15-15.3 35-26.3 56-30.8 18-3.8 37-3 54.8 2.2 15 4.5 28.8 12.8 40 23.6l34-34.2c6-6 12.4-12 18-18.3-17-16-37.5-29-59.7-37-40-15-85-15.2-125.3-1.3z"/><path fill="#EA4335" d="M143 24.2c40-14 85.2-13.6 125.2 1 22.2 8.3 42.5 21 60 37.2-6 6.3-12.2 12.2-18.2 18.3L275.8 115c-11.3-11-25-19-40-23.7C218 86 199 85.3 181 89c-21 4.6-40.4 15.6-55.5 31-12.2 12.3-21.4 27.5-27 44-20.3-16-40.6-31.6-61-47.4 21.5-43 60-77 105.4-92.4z"/><path fill="#FBBC05" d="M21.4 163.2c3.3-16.2 8.7-32 16.2-46.8l61 47.3c-8 23.3-8 49.2 0 72.4l-61 48C19 247 13.2 204 21.4 164z"/><path fill="#4285F4" d="M203.7 165h175c5.8 32.8 4.5 67-4.7 99-8.5 29.2-24.6 56.4-47 77l-59.2-45.8c19.5-13 33.3-34.3 37.2-57.5H203.6V165z"/><path fill="#34A853" d="M37.5 283.5l61-47.3c7.7 23 22.7 43.2 42.5 57 12.4 8.8 26.6 15 41.4 18 14.6 3 29.7 2.6 44.4 0 14.6-2.5 28.7-7.8 41-16l59 45.8c-21.2 19.7-48 33-76 39.6-31.3 7-64.3 7.3-95.3-1-24.6-6.5-47.7-18.2-67.6-34-21-16.7-39-38-51-62z"/></svg>